<?xml version="1.0" standalone="no"?>
<!DOCTYPE svg PUBLIC "-//W3C//DTD SVG 20010904//EN"
 "http://www.w3.org/TR/2001/REC-SVG-20010904/DTD/svg10.dtd">
<svg version="1.0" xmlns="http://www.w3.org/2000/svg"
 width="1080.000000pt" height="1080.000000pt" viewBox="0 0 1080.000000 1080.000000"
 preserveAspectRatio="xMidYMid meet">
<metadata>
Created by potrace 1.11, written by Peter Selinger 2001-2013
</metadata>
<g transform="translate(0.000000,1080.000000) scale(0.100000,-0.100000)"
fill="#000000" stroke="none">
<path d="M0 5400 l0 -5400 5400 0 5400 0 0 5400 0 5400 -5400 0 -5400 0 0
-5400z m10534 5260 c49 -11 85 -37 111 -81 20 -34 20 -52 20 -5179 0 -5127 0
-5145 -20 -5179 -26 -44 -62 -70 -111 -81 -52 -13 -10216 -13 -10268 0 -49 11
-85 37 -111 81 -20 34 -20 52 -20 5179 0 5127 0 5145 20 5179 25 42 62 71 106
81 48 11 10225 12 10273 0z"/>
<path d="M470 5400 l0 -4930 4930 0 4930 0 0 4930 0 4930 -4930 0 -4930 0 0
-4930z m2720 4573 c455 -75 759 -228 1046 -525 410 -425 615 -1046 591 -1793
-10 -310 -52 -560 -134 -809 -159 -480 -473 -863 -921 -1122 -70 -40 -87 -55
-87 -73 0 -20 13 -28 95 -60 119 -47 181 -78 289 -148 509 -329 901 -993 1031
-1749 49 -283 66 -715 40 -984 -62 -631 -276 -1109 -655 -1468 -234 -222 -500
-350 -855 -415 -112 -20 -149 -21 -1522 -24 l-1408 -4 0 135 0 136 33 0 c17 0
63 7 101 15 265 56 398 241 464 645 48 291 47 204 47 3695 0 3051 -1 3302 -17
3450 -40 364 -87 536 -187 673 -43 58 -139 126 -213 151 -50 17 -169 39 -220
41 -5 0 -8 59 -8 131 l0 130 1183 -4 c1134 -4 1187 -5 1307 -24z m5030 3 c617
-89 1076 -380 1424 -903 269 -405 416 -898 446 -1488 32 -653 -82 -1257 -315
-1665 -298 -523 -736 -804 -1377 -885 -281 -36 -785 -5 -1161 71 l-28 6 4
-1539 c4 -1634 4 -1628 52 -1893 71 -386 207 -554 485 -599 l100 -16 0 -132 0
-133 -1020 0 -1020 0 0 133 0 132 100 16 c122 20 192 53 276 132 139 129 206
341 256 807 16 150 24 6127 8 6514 -28 724 -124 1018 -374 1141 -63 31 -109
43 -233 61 l-33 5 0 130 0 131 1148 -5 c1001 -3 1162 -6 1262 -21z"/>
<path d="M2100 7701 l0 -1951 363 0 c401 0 470 7 625 62 160 56 271 123 398
242 377 350 576 981 550 1741 -15 464 -78 780 -214 1080 -166 370 -421 613
-750 715 -155 49 -189 52 -589 57 l-383 5 0 -1951z"/>
<path d="M2103 3759 c4 -1671 4 -1683 43 -1959 55 -394 171 -574 409 -635 47
-12 123 -15 365 -15 323 0 390 6 509 46 373 125 673 573 792 1184 92 473 85
1101 -16 1553 -163 724 -591 1253 -1137 1406 -170 48 -226 53 -606 58 l-363 5
4 -1643z"/>
<path d="M7210 7586 l0 -2066 58 -29 c80 -40 238 -87 362 -107 130 -21 403
-24 510 -5 237 42 431 139 601 299 343 322 528 817 558 1489 25 562 -54 1118
-216 1523 -216 539 -503 832 -913 932 -78 19 -122 21 -522 25 l-438 5 0 -2066z"/>
</g>
</svg>
